<svg width="26" height="26" viewBox="0 0 26 26" fill="none" xmlns="http://www.w3.org/2000/svg">
<path d="M13 25C11.4241 25 9.86371 24.6896 8.4078 24.0866C6.95189 23.4835 5.62902 22.5996 4.51472 21.4853C3.40042 20.371 2.5165 19.0481 1.91345 17.5922C1.31039 16.1363 1 14.5759 1 13C1 11.4241 1.31039 9.86371 1.91345 8.4078C2.5165 6.95189 3.40042 5.62902 4.51472 4.51472C5.62902 3.40042 6.95189 2.5165 8.4078 1.91345C9.86371 1.31039 11.4241 1 13 1C14.5759 1 16.1363 1.31039 17.5922 1.91345C19.0481 2.5165 20.371 3.40042 21.4853 4.51472C22.5996 5.62902 23.4835 6.95189 24.0866 8.4078C24.6896 9.86371 25 11.4241 25 13C25 14.5759 24.6896 16.1363 24.0866 17.5922C23.4835 19.0481 22.5996 20.371 21.4853 21.4853C20.371 22.5996 19.0481 23.4835 17.5922 24.0866C16.1363 24.6896 14.5759 25 13 25ZM13 25V15.6667M10.3333 13C10.3333 13.7072 10.6143 14.3855 11.1144 14.8856C11.6145 15.3857 12.2928 15.6667 13 15.6667M10.3333 13C10.3333 12.2928 10.6143 11.6145 11.1144 11.1144C11.6145 10.6143 12.2928 10.3333 13 10.3333C13.7072 10.3333 14.3855 10.6143 14.8856 11.1144C15.3857 11.6145 15.6667 12.2928 15.6667 13M10.3333 13L1.33333 10.3333M13 15.6667C13.7072 15.6667 14.3855 15.3857 14.8856 14.8856C15.3857 14.3855 15.6667 13.7072 15.6667 13M15.6667 13L24.6667 10.3333" stroke="#030712" stroke-opacity="0.7" stroke-width="2" stroke-linecap="round" stroke-linejoin="round"/>
</svg>
